Coordinates
version=1
nRows=10
nColumns=40
inDegrees=yes

Units are S.I. units (second, meters, Newtons, ...)
Angles are in degrees.

endheader
time	pelvis_tilt	pelvis_list	pelvis_rotation	pelvis_tx	pelvis_ty	pelvis_tz	hip_flexion_r	hip_adduction_r	hip_rotation_r	knee_angle_r	knee_angle_r_beta	ankle_angle_r	subtalar_angle_r	mtp_angle_r	hip_flexion_l	hip_adduction_l	hip_rotation_l	knee_angle_l	knee_angle_l_beta	ankle_angle_l	subtalar_angle_l	mtp_angle_l	lumbar_extension	lumbar_bending	lumbar_rotation	arm_flex_r	arm_add_r	arm_rot_r	elbow_flex_r	pro_sup_r	wrist_flex_r	wrist_dev_r	arm_flex_l	arm_add_l	arm_rot_l	elbow_flex_l	pro_sup_l	wrist_flex_l	wrist_dev_l
     58.87778571	     -7.52030849	     -6.36168202	      6.80650684	      0.87166593	      0.91358342	      0.44247196	      5.10467436	      4.51741694	    -15.51766002	     14.46613143	     14.46613143	     18.33657987	     -3.51372451	     -0.79760680	     33.90548772	     -5.96161423	      1.60807775	     23.61164756	     23.61164756	      4.52144825	    -11.47977768	      4.03312508	     -9.08871894	      2.56072236	      3.40361496	     40.36352734	    -12.88921069	      3.72147893	    100.98948911	     44.24391960	      0.00000000	      0.00000000	     -4.70453047	     -5.55561227	    -17.72111451	     25.64915095	     46.99148155	      0.00000000	      0.00000000
     58.89057143	     -7.52139542	     -6.42716366	      6.75268235	      0.87277654	      0.91280484	      0.44063649	      4.64913801	      4.49868456	    -15.37649702	     14.60981349	     14.60981349	     18.56580037	     -3.54285531	     -0.81938312	     33.78917232	     -6.05488423	      1.42531432	     24.40815927	     24.40815927	      4.31714085	    -11.74843376	      3.87233107	     -9.02655398	      2.50831944	      3.44722792	     39.99808757	    -12.38483525	      3.91735380	    101.09154969	     44.23669967	      0.00000000	      0.00000000	     -4.73398363	     -5.70367778	    -17.74276428	     25.58874390	     46.99344075	      0.00000000	      0.00000000
     58.90335714	     -7.50521041	     -6.46064296	      6.72884830	      0.87385230	      0.91232196	      0.43860561	      4.22337343	      4.41973406	    -15.25770920	     14.83916960	     14.83916960	     18.71180449	     -3.62099392	     -0.82870506	     33.61568451	     -6.07839940	      1.34184281	     25.13668454	     25.13668454	      4.27661657	    -11.96744162	      3.69914612	     -8.99761370	      2.44504821	      3.49733941	     39.48168643	    -11.93268185	      4.12023189	    101.07461096	     44.23119036	      0.00000000	      0.00000000	     -4.67075791	     -5.87893394	    -17.76072988	     25.57841030	     46.99720505	      0.00000000	      0.00000000
     58.91614286	     -7.46895578	     -6.49359789	      6.69225663	      0.87489607	      0.91207531	      0.43646480	      3.86446380	      4.30783710	    -15.12046695	     15.22551451	     15.22551451	     18.78636158	     -3.76369806	     -0.82327242	     33.43495213	     -6.07390763	      1.41693650	     25.89623346	     25.89623346	      4.49856684	    -12.18356969	      3.43676971	     -9.02155906	      2.39502154	      3.48286290	     38.78912749	    -11.48236218	      4.31962053	    100.95180665	     44.22875356	      0.00000000	      0.00000000	     -4.52771080	     -6.02703929	    -17.77161797	     25.59508152	     47.00071383	      0.00000000	      0.00000000
     58.92892857	     -7.42200411	     -6.51925568	      6.66383407	      0.87588226	      0.91213856	      0.43418959	      3.57787268	      4.15842661	    -14.99973412	     15.74878590	     15.74878590	     18.77291717	     -3.96614769	     -0.81703491	     33.20032802	     -6.02843916	      1.55038470	     26.56230000	     26.56230000	      4.85629772	    -12.39619923	      3.19574468	     -9.06752398	      2.37533912	      3.48501199	     37.97045311	    -11.08438750	      4.51332734	    100.69214313	     44.23011691	      0.00000000	      0.00000000	     -4.30687621	     -6.18312728	    -17.78136301	     25.65843207	     47.00539179	      0.00000000	      0.00000000
     58.94171429	     -7.34763126	     -6.53919698	      6.62350856	      0.87679052	      0.91246915	      0.43175595	      3.39054527	      3.95969089	    -14.85294186	     16.50092893	     16.50092893	     18.72462772	     -4.26711311	     -0.84273775	     32.91199225	     -5.95586437	      1.72319767	     27.18082310	     27.18082310	      5.29601158	    -12.63254497	      3.00722950	     -9.13858621	      2.39056353	      3.51788832	     36.95601362	    -10.73043682	      4.70244364	    100.22489526	     44.23777641	      0.00000000	      0.00000000	     -4.01056752	     -6.33369706	    -17.79109159	     25.77326195	     47.01084954	      0.00000000	      0.00000000
     58.95450000	     -7.28652506	     -6.55507500	      6.55762225	      0.87761300	      0.91302737	      0.42924681	      3.35570609	      3.71286927	    -14.69202701	     17.48930686	     17.48930686	     18.58937295	     -4.65919164	     -0.90608569	     32.55916873	     -5.85832849	      1.90628247	     27.65582062	     27.65582062	      5.83552420	    -12.90958723	      2.89937710	     -9.21617018	      2.41220299	      3.61185319	     35.81848114	    -10.46438866	      4.87304515	     99.51496541	     44.25353053	      0.00000000	      0.00000000	     -3.63704986	     -6.47392749	    -17.80168637	     25.95725837	     47.01712723	      0.00000000	      0.00000000
     58.96728571	     -7.52781551	     -6.40174742	      6.34740952	      0.87803855	      0.91328431	      0.42670521	      4.07989123	      3.15467646	    -14.26755562	     19.28678724	     19.28678724	     18.46285866	     -5.59086538	     -1.15289300	     32.42573859	     -5.56183940	      1.96871438	     27.98694021	     27.98694021	      6.41724127	    -13.38276524	      3.30296347	     -8.91891024	      2.22943159	      3.95749779	     34.83040925	    -10.47644046	      4.75054455	     97.77167817	     44.31867274	      0.00000000	      0.00000000	     -3.19298998	     -6.59447994	    -17.83849146	     26.32839106	     47.02264538	      0.00000000	      0.00000000
     58.98007143	     -7.52242511	     -6.37777803	      6.19499883	      0.87867937	      0.91415348	      0.42414237	      4.40850470	      2.79362276	    -14.01319899	     20.78341614	     20.78341614	     18.06385268	     -6.26558633	     -1.49306904	     31.96813963	     -5.38604081	      2.19957039	     28.19606875	     28.19606875	      7.11100822	    -13.79055250	      3.97221027	     -8.91178870	      2.19893664	      4.06003521	     33.71045656	    -10.22205177	      4.84569407	     95.87206713	     44.38448403	      0.00000000	      0.00000000	     -2.80902916	     -6.70189375	    -17.88094123	     26.81905002	     47.02359860	      0.00000000	      0.00000000
     58.99285714	     -7.50596067	     -6.32697998	      6.00463168	      0.87923722	      0.91508202	      0.42157048	      4.85999562	      2.35837524	    -13.78992523	     22.52288336	     22.52288336	     17.60599241	     -6.87977984	     -2.04831057	     31.44065468	     -5.22484635	      2.26063247	     28.29836959	     28.29836959	      7.74069432	    -14.07839788	      4.46656103	     -8.91978086	      2.20247532	      4.26467659	     32.52244143	    -10.16306760	      5.08979215	     93.95901850	     44.44311602	      0.00000000	      0.00000000	     -2.41049117	     -6.82999860	    -17.92741407	     27.43055170	     47.02642446	      0.00000000	      0.00000000
